<svg xmlns="http://www.w3.org/2000/svg" width="623" height="169.81192">
 <defs>
  <linearGradient id="linearGradientSkeiui53l4s" y2="0.5" x2="1" y1="0.5" x1="0">
   <stop stop-color="#e78200" offset="47.87%"/>
   <stop stop-color="#e78200" offset="100%"/>
  </linearGradient>
  <linearGradient id="linearGradientSkeiui53l4v" y2="0.5" x2="1" y1="0.5" x1="0">
   <stop stop-color="#7e7e7e" offset="0%"/>
   <stop stop-color="#7e7e7e" offset="100%"/>
  </linearGradient>
  <linearGradient id="linearGradientSkeiui53l4y" y2="0.5" x2="1" y1="0.5" x1="0">
   <stop stop-color="#7e7e7e" offset="0%"/>
   <stop stop-color="#7e7e7e" offset="100%"/>
  </linearGradient>
  <linearGradient id="linearGradientSkeiui53l51" y2="0.5" x2="1" y1="0.5" x1="0">
   <stop stop-color="#7e7e7e" offset="0%"/>
   <stop stop-color="#7e7e7e" offset="100%"/>
  </linearGradient>
  <linearGradient id="linearGradientSkeiui53l54" y2="0.5" x2="1" y1="0.5" x1="0">
   <stop stop-color="#7e7e7e" offset="0%"/>
   <stop stop-color="#7e7e7e" offset="100%"/>
  </linearGradient>
  <linearGradient id="linearGradientSkeiui53l57" y2="0.5" x2="1" y1="0.5" x1="0">
   <stop stop-color="#7e7e7e" offset="0%"/>
   <stop stop-color="#7e7e7e" offset="100%"/>
  </linearGradient>
  <linearGradient id="linearGradientSkeiui53l5a" y2="0.5" x2="1" y1="0.5" x1="0">
   <stop stop-color="#7e7e7e" offset="0%"/>
   <stop stop-color="#7e7e7e" offset="100%"/>
  </linearGradient>
  <linearGradient id="linearGradientSkeiui53l5d" y2="0.5" x2="1" y1="0.5" x1="0">
   <stop stop-color="#e78200" offset="0%"/>
   <stop stop-color="#e78200" offset="100%"/>
  </linearGradient>
 </defs>
 
 <g>
  <title>Layer 1</title>
  <g id="svg_14" class="svg-clip svg-visible" transform="matrix(2.9777,-0.052,0.052,2.9777,272.7629,209.5945) ">
   <rect id="svg_15" class="svg-hitbox" fill="none" height="16" width="16" y="-67.06306" x="-71.03225"/>
   <g id="svg_1">
    <svg y="-67.06306" x="-71.03225" id="svg_16" viewBox="16.799239339794724,-1.3010000000000002,16.391521320410554,16.381999999999998" height="16.382" width="16.39152">
     <desc>Created with Snap</desc>

     <g id="svg_17"/>
     <g id="svg_18"/>
     <g id="svg_19">
      <circle id="svg_20" r="3.191" cy="6.89" cx="24.995" fill="none"/>
     </g>
    </svg>
   </g>
  </g>
  <g id="svg_21" class="svg-clip svg-visible" transform="matrix(2.9777,-0.052,0.052,2.9777,318.7629,284.5945) ">
   <rect id="svg_22" class="svg-hitbox" fill="none" height="16" width="16" y="-67.06306" x="-71.03225"/>
   <g id="svg_2">
    <svg y="-67.06306" x="-71.03225" id="svg_23" viewBox="31.726697807032664,24.192,16.383500077982838,16.36548071116829" height="16.36548" width="16.3835">
     <desc>Created with Snap</desc>

     <g id="svg_24"/>
     <g id="svg_25"/>
     <g id="svg_26">
      <path id="svg_27" d="m41.483,29.601c-0.474,-0.265 -1.015,-0.409 -1.557,-0.409c-1.156,0 -2.222,0.628 -2.788,1.633c-0.419,0.741 -0.522,1.602 -0.29,2.424c0.231,0.82 0.764,1.501 1.509,1.922c1.488,0.839 3.515,0.258 4.344,-1.221c0.863,-1.54 0.316,-3.489 -1.218,-4.349z" fill="none"/>
     </g>
    </svg>
   </g>
  </g>
  <g id="svg_28" class="svg-clip svg-visible" transform="matrix(2.9777,-0.052,0.052,2.9777,317.7629,234.5945) ">
   <rect id="svg_29" class="svg-hitbox" fill="none" height="16" width="16" y="-67.06306" x="-71.03225"/>
   <g id="svg_3">
    <svg y="-67.06306" x="-71.03225" id="svg_30" viewBox="31.73269780703267,7.436999999999999,16.387733030101266,16.381999999999998" height="16.382" width="16.38773">
     <desc>Created with Snap</desc>

     <g id="svg_31"/>
     <g id="svg_32"/>
     <g id="svg_33">
      <path id="svg_34" d="m39.921,12.437c-0.541,0 -1.08,0.14 -1.557,0.409c-0.744,0.414 -1.279,1.097 -1.51,1.915c-0.232,0.82 -0.129,1.685 0.29,2.426c0.565,1.005 1.632,1.632 2.787,1.632c0.541,0 1.081,-0.144 1.559,-0.411c0.745,-0.416 1.277,-1.097 1.509,-1.919c0.232,-0.821 0.129,-1.681 -0.287,-2.425c-0.569,-1.001 -1.635,-1.627 -2.791,-1.627z" fill="none"/>
     </g>
    </svg>
   </g>
  </g>
  <g id="svg_35" class="svg-clip svg-visible" transform="matrix(2.9777,-0.052,0.052,2.9777,274.7629,311.5945) ">
   <rect id="svg_36" class="svg-hitbox" fill="none" height="16" width="16" y="-67.06306" x="-71.03225"/>
   <g id="svg_4">
    <svg y="-67.06306" x="-71.03225" id="svg_37" viewBox="16.80024086355298,32.928000000000004,16.389518272894044,16.380000000000003" height="16.38" width="16.38952">
     <desc>Created with Snap</desc>

     <g id="svg_38"/>
     <g id="svg_39"/>
     <g id="svg_40">
      <circle id="svg_41" r="3.19" cy="41.118" cx="24.995" fill="none"/>
     </g>
    </svg>
   </g>
  </g>
  <g id="svg_42" class="svg-clip svg-visible" transform="matrix(2.9777,-0.052,0.052,2.9777,228.7629,236.5945) ">
   <rect id="svg_43" class="svg-hitbox" fill="none" height="16" width="16" y="-67.06306" x="-71.03225"/>
   <g id="svg_5">
    <svg y="-67.06306" x="-71.03225" id="svg_44" viewBox="1.8839566756362434,7.431999999999999,16.37924407510215,16.382" height="16.382" width="16.37924">
     <desc>Created with Snap</desc>

     <g id="svg_45"/>
     <g id="svg_46"/>
     <g id="svg_47">
      <path id="svg_48" d="m8.514,18.408c0.474,0.266 1.013,0.406 1.556,0.406l0,0c1.153,0 2.22,-0.624 2.785,-1.628c0.862,-1.534 0.314,-3.485 -1.222,-4.344c-0.477,-0.269 -1.015,-0.41 -1.556,-0.41c-1.152,0 -2.223,0.625 -2.788,1.629c-0.857,1.531 -0.31,3.481 1.225,4.347z" fill="none"/>
     </g>
    </svg>
   </g>
  </g>
  <g id="svg_49" class="svg-clip svg-visible" transform="matrix(2.9777,-0.052,0.052,2.9777,229.7629,285.5945) ">
   <rect id="svg_50" class="svg-hitbox" fill="none" height="16" width="16" y="-67.06306" x="-71.03225"/>
   <g id="svg_6">
    <svg y="-67.06306" x="-71.03225" id="svg_51" viewBox="1.8809361674064435,24.189,16.386512940721065,16.381" height="16.381" width="16.38651">
     <desc>Created with Snap</desc>

     <g id="svg_52"/>
     <g id="svg_53"/>
     <g id="svg_54">
      <path id="svg_55" d="m10.065,29.189c-0.541,0 -1.079,0.144 -1.554,0.409c-0.743,0.414 -1.279,1.096 -1.509,1.918c-0.232,0.824 -0.128,1.684 0.29,2.428c0.562,1.005 1.633,1.626 2.792,1.626c0.541,0 1.079,-0.138 1.555,-0.405c1.534,-0.861 2.081,-2.809 1.222,-4.345c-0.569,-1.004 -1.638,-1.631 -2.796,-1.631z" fill="none"/>
     </g>
    </svg>
   </g>
  </g>
  <g id="svg_56" class="svg-clip svg-visible" transform="matrix(0.9066,0.482,-0.482,0.9066,288.3795,246.3247) ">
   <rect id="svg_57" class="svg-hitbox" fill="none" height="56" width="51" y="-70.25257" x="-274.50003"/>
   <g id="svg_7">
    <svg y="-70.25257" x="-274.50003" id="svg_58" viewBox="-0.9109068233559796,-4.09,51.81995029640821,56.191" height="56.191" width="51.81995">
     <desc>Created with Snap</desc>

     <g id="svg_59"/>
     <g id="svg_60"/>
     <g id="svg_61">
      <path id="svg_62" d="m4.858,12.695c1.562,-2.771 5.361,-3.852 8.144,-2.287c2.875,1.617 3.899,5.27 2.286,8.145c-1.057,1.884 -3.059,3.054 -5.217,3.054l0,0c-1.019,0 -2.031,-0.264 -2.924,-0.764c-2.878,-1.621 -3.905,-5.277 -2.289,-8.148zm8.146,24.907c-0.895,0.497 -1.903,0.76 -2.921,0.76c-2.164,0 -4.165,-1.17 -5.226,-3.053c-0.782,-1.395 -0.975,-3.008 -0.541,-4.547c0.431,-1.538 1.436,-2.815 2.828,-3.598c2.791,-1.562 6.591,-0.48 8.145,2.291c1.615,2.874 0.588,6.53 -2.285,8.147zm11.991,9.499c-3.297,0 -5.981,-2.682 -5.981,-5.98c0,-3.298 2.685,-5.982 5.981,-5.982c3.3,0 5.983,2.685 5.983,5.982c0.001,3.298 -2.683,5.98 -5.983,5.98zm0,-34.229c-3.297,0 -5.981,-2.683 -5.981,-5.981c0,-3.3 2.685,-5.981 5.981,-5.981c3.3,0 5.983,2.681 5.983,5.981c0.001,3.298 -2.683,5.981 -5.983,5.981zm20.139,22.439c-1.058,1.885 -3.058,3.054 -5.221,3.054c-1.023,0 -2.032,-0.266 -2.928,-0.767c-1.392,-0.782 -2.396,-2.062 -2.826,-3.6c-0.434,-1.539 -0.235,-3.152 0.544,-4.544c1.556,-2.771 5.354,-3.856 8.144,-2.29c2.882,1.621 3.905,5.274 2.287,8.147zm0.552,-18.06c-0.433,1.537 -1.441,2.812 -2.834,3.594c-0.89,0.502 -1.904,0.767 -2.923,0.767c-2.159,0 -4.162,-1.17 -5.223,-3.056c-0.779,-1.392 -0.975,-3.007 -0.541,-4.543c0.433,-1.537 1.441,-2.816 2.833,-3.598c2.793,-1.559 6.591,-0.48 8.146,2.289c0.78,1.394 0.969,3.01 0.542,4.547z" fill="url('#linearGradientSkeiui53l4s')"/>
     </g>
    </svg>
   </g>
  </g>
  <g id="svg_63" class="svg-clip svg-visible" transform="matrix(2.9777,-0.052,0.052,2.9777,265.1888,202.2802) ">
   <rect id="svg_64" class="svg-hitbox" fill="none" height="21" width="21" y="-67.06306" x="-71.03225"/>
   <g id="svg_8">
    <svg y="-67.06306" x="-71.03225" id="svg_65" viewBox="14.014000000000003,-4.091,21.964000279342976,21.961999999999996" height="21.962" width="21.964">
     <desc>Created with Snap</desc>

     <g id="svg_66"/>
     <g id="svg_67"/>
     <g id="svg_68">
      <path id="svg_69" d="m24.995,0.909c-3.297,0 -5.981,2.681 -5.981,5.981c0,3.299 2.685,5.981 5.981,5.981c3.3,0 5.983,-2.683 5.983,-5.981c0.001,-3.3 -2.683,-5.981 -5.983,-5.981zm0,9.172c-1.757,0 -3.19,-1.43 -3.19,-3.19c0,-1.758 1.434,-3.191 3.19,-3.191c1.759,0 3.191,1.433 3.191,3.191c0.001,1.76 -1.431,3.19 -3.191,3.19z" fill="url('#linearGradientSkeiui53l4v')"/>
     </g>
    </svg>
   </g>
  </g>
  <g id="svg_70" class="svg-clip svg-visible" transform="matrix(2.9777,-0.052,0.052,2.9777,267.1888,304.2802) ">
   <rect id="svg_71" class="svg-hitbox" fill="none" height="21" width="21" y="-67.06306" x="-71.03225"/>
   <g id="svg_9">
    <svg y="-67.06306" x="-71.03225" id="svg_72" viewBox="14.014000000000003,30.137999999999998,21.964000279342976,21.961999999999996" height="21.962" width="21.964">
     <desc>Created with Snap</desc>

     <g id="svg_73"/>
     <g id="svg_74"/>
     <g id="svg_75">
      <path id="svg_76" d="m24.995,35.138c-3.297,0 -5.981,2.685 -5.981,5.982c0,3.299 2.685,5.98 5.981,5.98c3.3,0 5.983,-2.682 5.983,-5.98c0.001,-3.298 -2.683,-5.982 -5.983,-5.982zm0,9.17c-1.757,0 -3.19,-1.43 -3.19,-3.188c0,-1.76 1.434,-3.192 3.19,-3.192c1.759,0 3.191,1.433 3.191,3.192c0.001,1.758 -1.431,3.188 -3.191,3.188z" fill="url('#linearGradientSkeiui53l4y')"/>
     </g>
    </svg>
   </g>
  </g>
  <g id="svg_77" class="svg-clip svg-visible" transform="matrix(2.9777,-0.052,0.052,2.9777,221.1888,229.2802) ">
   <rect id="svg_78" class="svg-hitbox" fill="none" height="21" width="21" y="-67.06306" x="-71.03225"/>
   <g id="svg_10">
    <svg y="-67.06306" x="-71.03225" id="svg_79" viewBox="-0.9074255641533826,4.6842704258765675,21.960571578243655,21.918729574123432" height="21.91873" width="21.96057">
     <desc>Created with Snap</desc>

     <g id="svg_80"/>
     <g id="svg_81"/>
     <g id="svg_82">
      <path id="svg_83" d="m7.146,20.84c0.894,0.503 1.905,0.763 2.924,0.763l0,0c2.159,0 4.16,-1.167 5.217,-3.051c1.617,-2.877 0.59,-6.53 -2.286,-8.145c-2.782,-1.567 -6.584,-0.487 -8.143,2.285c-1.616,2.874 -0.589,6.53 2.288,8.148zm0.146,-6.779c0.567,-1.004 1.633,-1.629 2.789,-1.629c0.541,0 1.079,0.141 1.555,0.41c1.534,0.863 2.081,2.81 1.221,4.344c-0.564,1.005 -1.63,1.628 -2.785,1.628l0,0c-0.541,0 -1.08,-0.141 -1.554,-0.406c-1.539,-0.866 -2.086,-2.816 -1.226,-4.347z" fill="url('#linearGradientSkeiui53l51')"/>
     </g>
    </svg>
   </g>
  </g>
  <g id="svg_84" class="svg-clip svg-visible" transform="matrix(2.9777,-0.052,0.052,2.9777,311.1888,277.2802) ">
   <rect id="svg_85" class="svg-hitbox" fill="none" height="21" width="21" y="-67.06306" x="-71.03225"/>
   <g id="svg_11">
    <svg y="-67.06306" x="-71.03225" id="svg_86" viewBox="28.936646826552376,21.445095229510123,21.966623704264364,21.92290477048988" height="21.9229" width="21.96662">
     <desc>Created with Snap</desc>

     <g id="svg_87"/>
     <g id="svg_88"/>
     <g id="svg_89">
      <path id="svg_90" d="m42.85,27.167c-2.793,-1.569 -6.591,-0.479 -8.144,2.288c-0.779,1.396 -0.978,3.004 -0.544,4.544c0.431,1.542 1.438,2.819 2.827,3.603c0.895,0.502 1.903,0.766 2.927,0.766c2.162,0 4.162,-1.17 5.223,-3.053c1.613,-2.877 0.59,-6.53 -2.289,-8.148zm-0.149,6.779c-0.829,1.48 -2.855,2.061 -4.344,1.221c-0.742,-0.418 -1.277,-1.102 -1.509,-1.921c-0.232,-0.82 -0.129,-1.684 0.29,-2.426c0.563,-1.004 1.629,-1.631 2.788,-1.631c0.539,0 1.08,0.144 1.557,0.409c1.534,0.863 2.081,2.812 1.218,4.348z" fill="url('#linearGradientSkeiui53l54')"/>
     </g>
    </svg>
   </g>
  </g>
  <g id="svg_91" class="svg-clip svg-visible" transform="matrix(2.9777,-0.052,0.052,2.9777,310.1888,227.2802) ">
   <rect id="svg_92" class="svg-hitbox" fill="none" height="21" width="21" y="-67.06306" x="-71.03225"/>
   <g id="svg_12">
    <svg y="-67.06306" x="-71.03225" id="svg_93" viewBox="28.938807987908895,4.693178812792581,21.972052872128153,21.91582118720742" height="21.91582" width="21.97205">
     <desc>Created with Snap</desc>

     <g id="svg_94"/>
     <g id="svg_95"/>
     <g id="svg_96">
      <path id="svg_97" d="m36.998,10.413c-1.392,0.781 -2.397,2.06 -2.833,3.596c-0.434,1.539 -0.238,3.15 0.541,4.544c1.058,1.887 3.061,3.056 5.223,3.056c1.019,0 2.033,-0.264 2.923,-0.766c1.393,-0.78 2.396,-2.058 2.834,-3.596c0.431,-1.539 0.238,-3.154 -0.541,-4.545c-1.556,-2.771 -5.357,-3.852 -8.147,-2.289zm5.998,6.08c-0.23,0.817 -0.764,1.5 -1.51,1.917c-0.477,0.269 -1.018,0.41 -1.558,0.41c-1.155,0 -2.222,-0.624 -2.787,-1.629c-0.416,-0.743 -0.52,-1.606 -0.29,-2.428c0.23,-0.817 0.767,-1.499 1.509,-1.916c0.474,-0.267 1.014,-0.409 1.559,-0.409c1.155,0 2.224,0.628 2.787,1.627c0.419,0.746 0.523,1.606 0.29,2.428z" fill="url('#linearGradientSkeiui53l57')"/>
     </g>
    </svg>
   </g>
  </g>
  <g id="svg_98" class="svg-clip svg-visible" transform="matrix(2.9777,-0.052,0.052,2.9777,222.1888,278.2802) ">
   <rect id="svg_99" class="svg-hitbox" fill="none" height="21" width="21" y="-67.06306" x="-71.03225"/>
   <g id="svg_13">
    <svg y="-67.06306" x="-71.03225" id="svg_100" viewBox="-0.9091456343559203,21.445118336238064,21.965305483615047,21.91688166376193" height="21.91688" width="21.96531">
     <desc>Created with Snap</desc>

     <g id="svg_101"/>
     <g id="svg_102"/>
     <g id="svg_103">
      <path id="svg_104" d="m7.146,27.164c-1.392,0.782 -2.397,2.06 -2.828,3.598c-0.434,1.539 -0.242,3.153 0.541,4.547c1.058,1.883 3.058,3.053 5.226,3.053c1.018,0 2.026,-0.263 2.921,-0.76c2.875,-1.616 3.899,-5.272 2.286,-8.146c-1.556,-2.772 -5.355,-3.854 -8.146,-2.292zm4.49,8.001c-0.477,0.268 -1.015,0.405 -1.555,0.405c-1.155,0 -2.226,-0.625 -2.792,-1.626c-0.416,-0.744 -0.52,-1.605 -0.291,-2.428c0.229,-0.82 0.764,-1.504 1.511,-1.918c0.474,-0.267 1.011,-0.409 1.552,-0.409c1.158,0 2.226,0.627 2.793,1.631c0.863,1.536 0.315,3.484 -1.218,4.345z" fill="url('#linearGradientSkeiui53l5a')"/>
     </g>
    </svg>
   </g>
  </g>
  
 </g>
</svg>