<svg xmlns="http://www.w3.org/2000/svg" xmlns:xlink="http://www.w3.org/1999/xlink" style="text-rendering: geometricprecision; cursor: auto;"><defs><linearGradient x1="0" y1="0.5" x2="1" y2="0.5" id="linearGradientSkeiui53l2c"><stop offset="47.87%" stop-color="#e78200"></stop><stop offset="100%" stop-color="#e78200"></stop></linearGradient><linearGradient x1="0" y1="0.5" x2="1" y2="0.5" id="linearGradientSkeiui53l2l"><stop offset="0%" stop-color="#7e7e7e"></stop><stop offset="100%" stop-color="#7e7e7e"></stop></linearGradient><linearGradient x1="0" y1="0.5" x2="1" y2="0.5" id="linearGradientSkeiui53l2u"><stop offset="0%" stop-color="#7e7e7e"></stop><stop offset="100%" stop-color="#7e7e7e"></stop></linearGradient><linearGradient x1="0" y1="0.5" x2="1" y2="0.5" id="linearGradientSkeiui53l33"><stop offset="0%" stop-color="#7e7e7e"></stop><stop offset="100%" stop-color="#7e7e7e"></stop></linearGradient><linearGradient x1="0" y1="0.5" x2="1" y2="0.5" id="linearGradientSkeiui53l3c"><stop offset="0%" stop-color="#7e7e7e"></stop><stop offset="100%" stop-color="#7e7e7e"></stop></linearGradient><linearGradient x1="0" y1="0.5" x2="1" y2="0.5" id="linearGradientSkeiui53l3l"><stop offset="0%" stop-color="#7e7e7e"></stop><stop offset="100%" stop-color="#7e7e7e"></stop></linearGradient><linearGradient x1="0" y1="0.5" x2="1" y2="0.5" id="linearGradientSkeiui53l3u"><stop offset="0%" stop-color="#7e7e7e"></stop><stop offset="100%" stop-color="#7e7e7e"></stop></linearGradient><linearGradient x1="0" y1="0.5" x2="1" y2="0.5" id="linearGradientSkeiui53l44"><stop offset="47.87%" stop-color="#e78200"></stop><stop offset="100%" stop-color="#e78200"></stop></linearGradient><linearGradient x1="0" y1="0.5" x2="1" y2="0.5" id="linearGradientSkeiui53l47"><stop offset="0%" stop-color="#7e7e7e"></stop><stop offset="100%" stop-color="#7e7e7e"></stop></linearGradient><linearGradient x1="0" y1="0.5" x2="1" y2="0.5" id="linearGradientSkeiui53l4a"><stop offset="0%" stop-color="#7e7e7e"></stop><stop offset="100%" stop-color="#7e7e7e"></stop></linearGradient><linearGradient x1="0" y1="0.5" x2="1" y2="0.5" id="linearGradientSkeiui53l4d"><stop offset="0%" stop-color="#7e7e7e"></stop><stop offset="100%" stop-color="#7e7e7e"></stop></linearGradient><linearGradient x1="0" y1="0.5" x2="1" y2="0.5" id="linearGradientSkeiui53l4g"><stop offset="0%" stop-color="#7e7e7e"></stop><stop offset="100%" stop-color="#7e7e7e"></stop></linearGradient><linearGradient x1="0" y1="0.5" x2="1" y2="0.5" id="linearGradientSkeiui53l4j"><stop offset="0%" stop-color="#7e7e7e"></stop><stop offset="100%" stop-color="#7e7e7e"></stop></linearGradient><linearGradient x1="0" y1="0.5" x2="1" y2="0.5" id="linearGradientSkeiui53l4m"><stop offset="0%" stop-color="#7e7e7e"></stop><stop offset="100%" stop-color="#7e7e7e"></stop></linearGradient><linearGradient x1="0" y1="0.5" x2="1" y2="0.5" id="linearGradientSkeiui53l4s"><stop offset="47.87%" stop-color="#e78200"></stop><stop offset="100%" stop-color="#e78200"></stop></linearGradient><linearGradient x1="0" y1="0.5" x2="1" y2="0.5" id="linearGradientSkeiui53l4v"><stop offset="0%" stop-color="#7e7e7e"></stop><stop offset="100%" stop-color="#7e7e7e"></stop></linearGradient><linearGradient x1="0" y1="0.5" x2="1" y2="0.5" id="linearGradientSkeiui53l4y"><stop offset="0%" stop-color="#7e7e7e"></stop><stop offset="100%" stop-color="#7e7e7e"></stop></linearGradient><linearGradient x1="0" y1="0.5" x2="1" y2="0.5" id="linearGradientSkeiui53l51"><stop offset="0%" stop-color="#7e7e7e"></stop><stop offset="100%" stop-color="#7e7e7e"></stop></linearGradient><linearGradient x1="0" y1="0.5" x2="1" y2="0.5" id="linearGradientSkeiui53l54"><stop offset="0%" stop-color="#7e7e7e"></stop><stop offset="100%" stop-color="#7e7e7e"></stop></linearGradient><linearGradient x1="0" y1="0.5" x2="1" y2="0.5" id="linearGradientSkeiui53l57"><stop offset="0%" stop-color="#7e7e7e"></stop><stop offset="100%" stop-color="#7e7e7e"></stop></linearGradient><linearGradient x1="0" y1="0.5" x2="1" y2="0.5" id="linearGradientSkeiui53l5a"><stop offset="0%" stop-color="#7e7e7e"></stop><stop offset="100%" stop-color="#7e7e7e"></stop></linearGradient><linearGradient x1="0" y1="0.5" x2="1" y2="0.5" id="linearGradientSkeiui53l5d"><stop offset="0%" stop-color="#e78200"></stop><stop offset="100%" stop-color="#e78200"></stop></linearGradient></defs><g transform="matrix(2.9777,-0.052,0.052,2.9777,272.7629,209.5945)" style="cursor: move; opacity: 1;" class="svg-clip svg-visible"><rect x="0" y="0" width="16" height="16" fill="none" style="" class="svg-hitbox"></rect><svg width="16.391521320410554" height="16.381999999999998" viewBox="16.799239339794724,-1.3010000000000002,16.391521320410554,16.381999999999998"><desc>Created with Snap</desc><defs></defs><g></g><g></g><g><circle fill="none" cx="24.995" cy="6.89" r="3.191" stroke="none" style=""></circle></g></svg></g><g transform="matrix(2.9777,-0.052,0.052,2.9777,318.7629,284.5945)" style="cursor: move; opacity: 1;" class="svg-clip svg-visible"><rect x="0" y="0" width="16" height="16" fill="none" style="" class="svg-hitbox"></rect><svg width="16.383500077982838" height="16.36548071116829" viewBox="31.726697807032664,24.192,16.383500077982838,16.36548071116829"><desc>Created with Snap</desc><defs></defs><g></g><g></g><g><path fill="none" d="M41.483,29.601c-0.474-0.265-1.015-0.409-1.557-0.409c-1.156,0-2.222,0.628-2.788,1.633   c-0.419,0.741-0.522,1.602-0.29,2.424c0.231,0.82,0.764,1.501,1.509,1.922c1.488,0.839,3.515,0.258,4.344-1.221   C43.564,32.41,43.017,30.461,41.483,29.601z" stroke="none" style=""></path></g></svg></g><g transform="matrix(2.9777,-0.052,0.052,2.9777,317.7629,234.5945)" style="cursor: move; opacity: 1;" class="svg-clip svg-visible"><rect x="0" y="0" width="16" height="16" fill="none" style="" class="svg-hitbox"></rect><svg width="16.387733030101266" height="16.381999999999998" viewBox="31.73269780703267,7.436999999999999,16.387733030101266,16.381999999999998"><desc>Created with Snap</desc><defs></defs><g></g><g></g><g><path fill="none" d="M39.921,12.437c-0.541,0-1.08,0.14-1.557,0.409c-0.744,0.414-1.279,1.097-1.51,1.915   c-0.232,0.82-0.129,1.685,0.29,2.426c0.565,1.005,1.632,1.632,2.787,1.632c0.541,0,1.081-0.144,1.559-0.411   c0.745-0.416,1.277-1.097,1.509-1.919c0.232-0.821,0.129-1.681-0.287-2.425C42.143,13.063,41.077,12.437,39.921,12.437z" stroke="none" style=""></path></g></svg></g><g transform="matrix(2.9777,-0.052,0.052,2.9777,274.7629,311.5945)" style="cursor: move; opacity: 1;" class="svg-clip svg-visible"><rect x="0" y="0" width="16" height="16" fill="none" style="" class="svg-hitbox"></rect><svg width="16.389518272894044" height="16.380000000000003" viewBox="16.80024086355298,32.928000000000004,16.389518272894044,16.380000000000003"><desc>Created with Snap</desc><defs></defs><g></g><g></g><g><circle fill="none" cx="24.995" cy="41.118" r="3.19" stroke="none" style=""></circle></g></svg></g><g transform="matrix(2.9777,-0.052,0.052,2.9777,228.7629,236.5945)" style="cursor: move; opacity: 1;" class="svg-clip svg-visible"><rect x="0" y="0" width="16" height="16" fill="none" style="" class="svg-hitbox"></rect><svg width="16.37924407510215" height="16.382" viewBox="1.8839566756362434,7.431999999999999,16.37924407510215,16.382"><desc>Created with Snap</desc><defs></defs><g></g><g></g><g><path fill="none" d="M8.514,18.408c0.474,0.266,1.013,0.406,1.556,0.406l0,0c1.153,0,2.22-0.624,2.785-1.628   c0.862-1.534,0.314-3.485-1.222-4.344c-0.477-0.269-1.015-0.41-1.556-0.41c-1.152,0-2.223,0.625-2.788,1.629   C6.432,15.592,6.979,17.542,8.514,18.408z" stroke="none" style=""></path></g></svg></g><g transform="matrix(2.9777,-0.052,0.052,2.9777,229.7629,285.5945)" style="cursor: move; opacity: 1;" class="svg-clip svg-visible"><rect x="0" y="0" width="16" height="16" fill="none" style="" class="svg-hitbox"></rect><svg width="16.386512940721065" height="16.381" viewBox="1.8809361674064435,24.189,16.386512940721065,16.381"><desc>Created with Snap</desc><defs></defs><g></g><g></g><g><path fill="none" d="M10.065,29.189c-0.541,0-1.079,0.144-1.554,0.409c-0.743,0.414-1.279,1.096-1.509,1.918   C6.77,32.34,6.874,33.2,7.292,33.944c0.562,1.005,1.633,1.626,2.792,1.626c0.541,0,1.079-0.138,1.555-0.405   c1.534-0.861,2.081-2.809,1.222-4.345C12.292,29.816,11.223,29.189,10.065,29.189z" stroke="none" style=""></path></g></svg></g><g transform="matrix(0.9066,0.482,-0.482,0.9066,288.3795,246.3247)" style="cursor: move; opacity: 1;" class="svg-clip svg-visible"><rect x="0" y="0" width="51" height="56" fill="none" style="" class="svg-hitbox"></rect><svg width="51.81995029640821" height="56.191" viewBox="-0.9109068233559796,-4.09,51.81995029640821,56.191"><desc>Created with Snap</desc><defs></defs><g></g><g></g><g><path fill="url('#linearGradientSkeiui53l4s')" d="M4.858,12.695c1.562-2.771,5.361-3.852,8.144-2.287c2.875,1.617,3.899,5.27,2.286,8.145   c-1.057,1.884-3.059,3.054-5.217,3.054l0,0c-1.019,0-2.031-0.264-2.924-0.764C4.269,19.222,3.242,15.566,4.858,12.695z    M13.004,37.602c-0.895,0.497-1.903,0.76-2.921,0.76c-2.164,0-4.165-1.17-5.226-3.053c-0.782-1.395-0.975-3.008-0.541-4.547   c0.431-1.538,1.436-2.815,2.828-3.598c2.791-1.562,6.591-0.48,8.145,2.291C16.904,32.329,15.877,35.985,13.004,37.602z    M24.995,47.101c-3.297,0-5.981-2.682-5.981-5.98c0-3.298,2.685-5.982,5.981-5.982c3.3,0,5.983,2.685,5.983,5.982   C30.979,44.419,28.295,47.101,24.995,47.101z M24.995,12.872c-3.297,0-5.981-2.683-5.981-5.981c0-3.3,2.685-5.981,5.981-5.981   c3.3,0,5.983,2.681,5.983,5.981C30.979,10.189,28.295,12.872,24.995,12.872z M45.134,35.311c-1.058,1.885-3.058,3.054-5.221,3.054   c-1.023,0-2.032-0.266-2.928-0.767c-1.392-0.782-2.396-2.062-2.826-3.6c-0.434-1.539-0.235-3.152,0.544-4.544   c1.556-2.771,5.354-3.856,8.144-2.29C45.729,28.785,46.752,32.438,45.134,35.311z M45.686,17.251   c-0.433,1.537-1.441,2.812-2.834,3.594c-0.89,0.502-1.904,0.767-2.923,0.767c-2.159,0-4.162-1.17-5.223-3.056   c-0.779-1.392-0.975-3.007-0.541-4.543c0.433-1.537,1.441-2.816,2.833-3.598c2.793-1.559,6.591-0.48,8.146,2.289   C45.924,14.098,46.113,15.714,45.686,17.251z" stroke="none" style=""></path></g></svg></g><g transform="matrix(2.9777,-0.052,0.052,2.9777,265.1888,202.2802)" style="cursor: move; opacity: 1;" class="svg-clip svg-visible"><rect x="0" y="0" width="21" height="21" fill="none" style="" class="svg-hitbox"></rect><svg width="21.964000279342976" height="21.961999999999996" viewBox="14.014000000000003,-4.091,21.964000279342976,21.961999999999996"><desc>Created with Snap</desc><defs></defs><g></g><g></g><g><path fill="url('#linearGradientSkeiui53l4v')" d="M24.995,0.909c-3.297,0-5.981,2.681-5.981,5.981c0,3.299,2.685,5.981,5.981,5.981   c3.3,0,5.983-2.683,5.983-5.981C30.979,3.59,28.295,0.909,24.995,0.909z M24.995,10.081c-1.757,0-3.19-1.43-3.19-3.19   c0-1.758,1.434-3.191,3.19-3.191c1.759,0,3.191,1.433,3.191,3.191C28.187,8.651,26.755,10.081,24.995,10.081z" stroke="none" style=""></path></g></svg></g><g transform="matrix(2.9777,-0.052,0.052,2.9777,267.1888,304.2802)" style="cursor: move; opacity: 1;" class="svg-clip svg-visible"><rect x="0" y="0" width="21" height="21" fill="none" style="" class="svg-hitbox"></rect><svg width="21.964000279342976" height="21.961999999999996" viewBox="14.014000000000003,30.137999999999998,21.964000279342976,21.961999999999996"><desc>Created with Snap</desc><defs></defs><g></g><g></g><g><path fill="url('#linearGradientSkeiui53l4y')" d="M24.995,35.138c-3.297,0-5.981,2.685-5.981,5.982c0,3.299,2.685,5.98,5.981,5.98   c3.3,0,5.983-2.682,5.983-5.98C30.979,37.822,28.295,35.138,24.995,35.138z M24.995,44.308c-1.757,0-3.19-1.43-3.19-3.188   c0-1.76,1.434-3.192,3.19-3.192c1.759,0,3.191,1.433,3.191,3.192C28.187,42.878,26.755,44.308,24.995,44.308z" stroke="none" style=""></path></g></svg></g><g transform="matrix(2.9777,-0.052,0.052,2.9777,221.1888,229.2802)" style="cursor: move; opacity: 1;" class="svg-clip svg-visible"><rect x="0" y="0" width="21" height="21" fill="none" style="" class="svg-hitbox"></rect><svg width="21.960571578243655" height="21.918729574123432" viewBox="-0.9074255641533826,4.6842704258765675,21.960571578243655,21.918729574123432"><desc>Created with Snap</desc><defs></defs><g></g><g></g><g><path fill="url('#linearGradientSkeiui53l51')" d="M7.146,20.84c0.894,0.503,1.905,0.763,2.924,0.763l0,0c2.159,0,4.16-1.167,5.217-3.051   c1.617-2.877,0.59-6.53-2.286-8.145C10.219,8.84,6.417,9.92,4.858,12.692C3.242,15.566,4.269,19.222,7.146,20.84z M7.292,14.061   c0.567-1.004,1.633-1.629,2.789-1.629c0.541,0,1.079,0.141,1.555,0.41c1.534,0.863,2.081,2.81,1.221,4.344   c-0.564,1.005-1.63,1.628-2.785,1.628l0,0c-0.541,0-1.08-0.141-1.554-0.406C6.979,17.542,6.432,15.592,7.292,14.061z" stroke="none" style=""></path></g></svg></g><g transform="matrix(2.9777,-0.052,0.052,2.9777,311.1888,277.2802)" style="cursor: move; opacity: 1;" class="svg-clip svg-visible"><rect x="0" y="0" width="21" height="21" fill="none" style="" class="svg-hitbox"></rect><svg width="21.966623704264364" height="21.92290477048988" viewBox="28.936646826552376,21.445095229510123,21.966623704264364,21.92290477048988"><desc>Created with Snap</desc><defs></defs><g></g><g></g><g><path fill="url('#linearGradientSkeiui53l54')" d="M42.85,27.167c-2.793-1.569-6.591-0.479-8.144,2.288c-0.779,1.396-0.978,3.004-0.544,4.544   c0.431,1.542,1.438,2.819,2.827,3.603c0.895,0.502,1.903,0.766,2.927,0.766c2.162,0,4.162-1.17,5.223-3.053   C46.752,32.438,45.729,28.785,42.85,27.167z M42.701,33.946c-0.829,1.48-2.855,2.061-4.344,1.221   c-0.742-0.418-1.277-1.102-1.509-1.921c-0.232-0.82-0.129-1.684,0.29-2.426c0.563-1.004,1.629-1.631,2.788-1.631   c0.539,0,1.08,0.144,1.557,0.409C43.017,30.461,43.564,32.41,42.701,33.946z" stroke="none" style=""></path></g></svg></g><g transform="matrix(2.9777,-0.052,0.052,2.9777,310.1888,227.2802)" style="cursor: move; opacity: 1;" class="svg-clip svg-visible"><rect x="0" y="0" width="21" height="21" fill="none" style="" class="svg-hitbox"></rect><svg width="21.972052872128153" height="21.91582118720742" viewBox="28.938807987908895,4.693178812792581,21.972052872128153,21.91582118720742"><desc>Created with Snap</desc><defs></defs><g></g><g></g><g><path fill="url('#linearGradientSkeiui53l57')" d="M36.998,10.413c-1.392,0.781-2.397,2.06-2.833,3.596c-0.434,1.539-0.238,3.15,0.541,4.544   c1.058,1.887,3.061,3.056,5.223,3.056c1.019,0,2.033-0.264,2.923-0.766c1.393-0.78,2.396-2.058,2.834-3.596   c0.431-1.539,0.238-3.154-0.541-4.545C43.589,9.931,39.788,8.85,36.998,10.413z M42.996,16.493c-0.23,0.817-0.764,1.5-1.51,1.917   c-0.477,0.269-1.018,0.41-1.558,0.41c-1.155,0-2.222-0.624-2.787-1.629c-0.416-0.743-0.52-1.606-0.29-2.428   c0.23-0.817,0.767-1.499,1.509-1.916c0.474-0.267,1.014-0.409,1.559-0.409c1.155,0,2.224,0.628,2.787,1.627   C43.125,14.811,43.229,15.671,42.996,16.493z" stroke="none" style=""></path></g></svg></g><g transform="matrix(2.9777,-0.052,0.052,2.9777,222.1888,278.2802)" style="cursor: move; opacity: 1;" class="svg-clip svg-visible"><rect x="0" y="0" width="21" height="21" fill="none" style="" class="svg-hitbox"></rect><svg width="21.965305483615047" height="21.91688166376193" viewBox="-0.9091456343559203,21.445118336238064,21.965305483615047,21.91688166376193"><desc>Created with Snap</desc><defs></defs><g></g><g></g><g><path fill="url('#linearGradientSkeiui53l5a')" d="M7.146,27.164c-1.392,0.782-2.397,2.06-2.828,3.598c-0.434,1.539-0.242,3.153,0.541,4.547   c1.058,1.883,3.058,3.053,5.226,3.053c1.018,0,2.026-0.263,2.921-0.76c2.875-1.616,3.899-5.272,2.286-8.146   C13.736,26.684,9.937,25.602,7.146,27.164z M11.636,35.165c-0.477,0.268-1.015,0.405-1.555,0.405c-1.155,0-2.226-0.625-2.792-1.626   c-0.416-0.744-0.52-1.605-0.291-2.428c0.229-0.82,0.764-1.504,1.511-1.918c0.474-0.267,1.011-0.409,1.552-0.409   c1.158,0,2.226,0.627,2.793,1.631C13.717,32.356,13.169,34.304,11.636,35.165z" stroke="none" style=""></path></g></svg></g><g transform="matrix(0.6648,0,0,0.6533,587,196)" style="pointer-events: fill; cursor: move; opacity: 1;" class="svg-text svg-visible"><path fill="red" style="" d="M-364.013671875,122.1875 C-20,121.1875 20,121.1875 364.013671875,122.1875"></path><path d="M-345.263671875 0L-354.633671875 0L-354.633671875-75L-282.763671875-75L-282.763671875-67.19L-345.263671875-67.19L-345.263671875-42.19L-285.883671875-42.19L-285.883671875-34.38L-345.263671875-34.38L-345.263671875 0ZM-274.948671875-28.52L-274.948671875-28.52Q-274.948671875-37.16 -273.098671875-42.82Q-271.238671875-48.49 -267.138671875-51.81Q-263.038671875-55.13 -256.498671875-56.47Q-249.948671875-57.81 -240.578671875-57.81L-240.578671875-57.81Q-231.198671875-57.81 -224.658671875-56.47Q-218.118671875-55.13 -214.008671875-51.81Q-209.90867187499998-48.49 -208.05867187500002-42.82Q-206.198671875-37.16 -206.198671875-28.52L-206.198671875-28.52Q-206.198671875-19.87 -208.05867187500002-14.16Q-209.90867187499998-8.45 -214.008671875-5.08Q-218.118671875-1.71 -224.658671875-0.32Q-231.198671875 1.07 -240.578671875 1.07L-240.578671875 1.07Q-249.948671875 1.07 -256.498671875-0.32Q-263.038671875-1.71 -267.138671875-5.08Q-271.238671875-8.45 -273.098671875-14.16Q-274.948671875-19.87 -274.948671875-28.52ZM-265.578671875-28.52L-265.578671875-28.52Q-265.578671875-23.83 -265.238671875-20.36Q-264.888671875-16.89 -263.938671875-14.4Q-262.988671875-11.91 -261.278671875-10.35Q-259.568671875-8.79 -256.788671875-7.86Q-254.008671875-6.93 -250.028671875-6.59Q-246.048671875-6.25 -240.578671875-6.25L-240.578671875-6.25Q-235.888671875-6.25 -232.198671875-6.47Q-228.518671875-6.69 -225.758671875-7.47Q-222.998671875-8.25 -221.048671875-9.69Q-219.088671875-11.13 -217.898671875-13.62Q-216.698671875-16.11 -216.138671875-19.75Q-215.578671875-23.39 -215.578671875-28.52L-215.578671875-28.52Q-215.578671875-33.54 -216.138671875-37.08Q-216.698671875-40.63 -217.898671875-43.02Q-219.088671875-45.41 -221.048671875-46.8Q-222.998671875-48.19 -225.758671875-48.9Q-228.518671875-49.61 -232.198671875-49.8Q-235.888671875-50 -240.578671875-50L-240.578671875-50Q-245.258671875-50 -248.948671875-49.8Q-252.638671875-49.61 -255.398671875-48.9Q-258.158671875-48.19 -260.108671875-46.8Q-262.058671875-45.41 -263.258671875-43.02Q-264.448671875-40.63 -265.018671875-37.08Q-265.578671875-33.54 -265.578671875-28.52ZM-195.213671875-56.25L-185.843671875-56.25L-185.843671875-25Q-185.843671875-19.78 -185.053671875-16.19Q-184.273671875-12.6 -181.93367187500002-10.4Q-179.59367187499998-8.2 -175.293671875-7.23Q-170.993671875-6.25 -163.963671875-6.25L-163.963671875-6.25Q-156.34367187499998-6.25 -151.493671875-7.37Q-146.633671875-8.5 -143.84367187499998-10.55Q-141.063671875-12.6 -140.013671875-15.48Q-138.963671875-18.36 -138.963671875-21.88L-138.963671875-21.88L-138.963671875-56.25L-129.59367187499998-56.25L-129.59367187499998 0L-138.963671875 0L-138.963671875-9.38Q-139.643671875-7.86 -141.263671875-6.03Q-142.873671875-4.2 -146.09367187499998-2.64Q-149.313671875-1.07 -154.423671875 0Q-159.523671875 1.07 -167.09367187499998 1.07L-167.09367187499998 1.07Q-173.383671875 1.07 -177.903671875 0.32Q-182.423671875-0.44 -185.573671875-1.93Q-188.723671875-3.42 -190.623671875-5.62Q-192.533671875-7.81 -193.553671875-10.72Q-194.583671875-13.62 -194.923671875-17.19Q-195.263671875-20.75 -195.263671875-25L-195.263671875-25L-195.213671875-56.25ZM-51.459843750000005 0L-60.83984375 0L-60.83984375-31.25Q-60.83984375-36.47 -61.61984375-40.06Q-62.39984375-43.65 -64.74984375-45.85Q-67.08984375-48.05 -71.38984375-49.02Q-75.67984375-50 -82.70984375-50L-82.70984375-50Q-90.32984375000001-50 -95.18984375-48.88Q-100.04984375000001-47.75 -102.82984375-45.7Q-105.61984375-43.65 -106.66984375-40.77Q-107.70984375-37.89 -107.70984375-34.38L-107.70984375-34.38L-107.70984375 0L-117.08984375 0L-117.08984375-56.25L-107.70984375-56.25L-107.70984375-46.88Q-106.68984375-49.27 -104.78984375-51Q-102.87984374999999-52.73 -100.48984375-53.96Q-98.09984375-55.18 -95.30984375-55.93Q-92.52984375-56.69 -89.74984375-57.1Q-86.95984375-57.52 -84.34984374999999-57.67Q-81.73984375-57.81 -79.58984375-57.81L-79.58984375-57.81Q-73.33984375-57.81 -68.81984374999999-57.03Q-64.30984375-56.25 -61.15984375-54.74Q-58.00984375-53.22 -56.099843750000005-50.98Q-54.19984375-48.73 -53.14984375-45.78Q-52.099843750000005-42.82 -51.75984375-39.18Q-51.41984375-35.55 -51.41984375-31.25L-51.41984375-31.25L-51.459843750000005 0ZM-6.106015624999998 1.07L-6.106015624999998 1.07Q-15.476015624999999 1.07 -22.026015625-0.29Q-28.566015625-1.66 -32.666015625-4.98Q-36.766015625-8.3 -38.626015625-13.92Q-40.476015625-19.53 -40.476015625-28.03L-40.476015625-28.03Q-40.476015625-36.82 -38.626015625-42.58Q-36.766015625-48.34 -32.666015625-51.71Q-28.566015625-55.08 -22.026015625-56.45Q-15.476015624999999-57.81 -6.106015624999998-57.81L-6.106015624999998-57.81Q 0.5339843750000028-57.81  5.033984375000003-57.13Q 9.523984374999998-56.45  12.373984375-55.42Q 15.233984374999999-54.39  16.723984375-53.2Q 18.213984375000003-52  18.893984375000002-50.98L 18.893984375000002-50.98L 18.893984375000002-75L 28.273984374999998-75L 28.273984374999998 0L 18.893984375000002 0L 18.893984375000002-8.35Q 18.893984375000002-8.35  16.553984375-5.57L 16.553984375-5.57Q 14.503984375000002-3.56  12.013984375-2.34Q 9.523984374999998-1.12  5.033984375000003-0.02Q 0.5339843750000028 1.07 -6.106015624999998 1.07ZM-6.106015624999998-6.25L-6.106015624999998-6.25Q-1.416015625-6.25  2.2439843749999966-6.47Q 5.903984375-6.69  8.693984375-7.42Q 11.473984375-8.15  13.403984375-9.59Q 15.333984375-11.04  16.553984375-13.43Q 17.773984374999998-15.82  18.333984375-19.36Q 18.893984375000002-22.9  18.893984375000002-27.88L 18.893984375000002-27.88Q 18.893984375000002-33.06  18.333984375-36.69Q 17.773984374999998-40.33  16.553984375-42.8Q 15.333984375-45.26  13.403984375-46.68Q 11.473984375-48.1  8.693984375-48.85Q 5.903984375-49.61  2.2439843749999966-49.8Q-1.416015625-50 -6.106015624999998-50L-6.106015624999998-50Q-11.576015624999997-50 -15.556015625-49.66Q-19.536015625-49.32 -22.316015625-48.44Q-25.096015625-47.56 -26.836015625-46Q-28.566015625-44.43 -29.516015625-41.99Q-30.466015625-39.55 -30.786015624999997-36.11Q-31.106015624999998-32.67 -31.106015624999998-28.03L-31.106015624999998-28.03Q-31.106015624999998-23.44 -30.786015624999997-20.04Q-30.466015625-16.65 -29.516015625-14.23Q-28.566015625-11.82 -26.836015625-10.25Q-25.096015625-8.69 -22.316015625-7.81Q-19.536015625-6.93 -15.556015625-6.59Q-11.576015624999997-6.25 -6.106015624999998-6.25ZM 96.78148437499999 0L 96.78148437499999-7.71Q 96.63148437499999-7.13  94.58148437499999-4.79L 94.58148437499999-4.79Q 93.11148437499999-3.03  90.67148437499998-1.68Q 88.23148437499998-0.34  84.151484375 0.42Q 80.08148437499999 1.17  73.44148437499999 1.17L 73.44148437499999 1.17Q 64.60148437499998 1.17  58.351484374999984 0.27Q 52.101484374999984-0.63  48.14148437499998-2.51Q 44.19148437499999-4.39  42.36148437499999-7.32Q 40.531484374999984-10.25  40.531484374999984-14.31L 40.531484374999984-14.31Q 40.531484374999984-18.55  41.531484374999984-21.51Q 42.531484374999984-24.46  44.46148437499998-26.46Q 46.39148437499998-28.47  49.12148437499999-29.59Q 51.851484374999984-30.71  55.351484374999984-31.3Q 58.841484374999986-31.88  62.991484374999985-32.03Q 67.14148437499998-32.18  71.82148437499998-32.18L 71.82148437499998-32.18Q 78.51148437499998-32.18  83.01148437499998-31.62Q 87.50148437499999-31.05  90.35148437499998-30.2Q 93.21148437499998-29.35  94.68148437499998-28.37Q 96.14148437499998-27.39  96.78148437499999-26.56L 96.78148437499999-26.56Q 96.78148437499999-32.03  96.31148437499999-35.89Q 95.85148437499998-39.75  94.80148437499999-42.33Q 93.75148437499999-44.92  92.091484375-46.46Q 90.43148437499998-48  88.01148437499998-48.78Q 85.591484375-49.56  82.371484375-49.78Q 79.151484375-50  75.00148437499999-50L 75.00148437499999-50Q 68.55148437499999-50  64.31148437499999-49.68Q 60.061484374999985-49.37  57.57148437499998-48.44Q 55.08148437499999-47.51  54.05148437499999-45.87Q 53.03148437499999-44.24  53.03148437499999-41.6L 53.03148437499999-41.6L 43.65148437499999-41.6Q 43.65148437499999-46.04  45.241484374999985-49.12Q 46.82148437499998-52.2  50.51148437499999-54.13Q 54.201484374999986-56.05  60.201484374999986-56.93Q 66.21148437499998-57.81  75.00148437499999-57.81L 75.00148437499999-57.81Q 83.591484375-57.81  89.55148437499999-56.4Q 95.51148437499998-54.98  99.19148437499999-51.42Q 102.88148437499999-47.85  104.52148437499999-41.82Q 106.15148437499998-35.79  106.15148437499998-26.56L 106.15148437499998-26.56L 106.15148437499998 0L 96.78148437499999 0ZM 75.00148437499999-6.25L 75.00148437499999-6.25Q 81.20148437499998-6.25  85.371484375-6.84Q 89.55148437499999-7.42  92.091484375-8.59Q 94.63148437499999-9.77  95.70148437499998-11.52Q 96.78148437499999-13.28  96.78148437499999-15.63L 96.78148437499999-15.63Q 96.78148437499999-17.97  95.53148437499999-19.6Q 94.29148437499998-21.24  91.38148437499999-22.27Q 88.48148437499998-23.29  83.69148437499999-23.75Q 78.901484375-24.22  71.871484375-24.22L 71.871484375-24.22Q 64.841484375-24.22  60.521484374999986-23.97Q 56.201484374999986-23.73  53.86148437499999-22.85Q 51.51148437499998-21.97  50.71148437499998-20.26Q 49.90148437499999-18.55  49.90148437499999-15.63L 49.90148437499999-15.63Q 49.90148437499999-12.7  50.76148437499998-10.86Q 51.61148437499999-9.03  54.25148437499999-8.01Q 56.881484374999985-6.98  61.841484374999986-6.62Q 66.80148437499999-6.25  75.00148437499999-6.25ZM 165.53234375000002-25L 173.34234375000003-25Q 173.34234375000003-17.82  172.17234375000004-13.01Q 170.99234375000003-8.2  168.23234375000004-5.32Q 165.48234375000004-2.44  160.98234375000004-1.22Q 156.49234375000003 0  149.90234375000003 0L 149.90234375000003 0Q 143.50234375000002 0  139.16234375000002-0.98Q 134.81234375000003-1.95  132.13234375000002-4.3Q 129.44234375000002-6.64  128.27234375000003-10.55Q 127.10234375000003-14.45  127.10234375000003-20.31L 127.10234375000003-20.31L 127.10234375000003-48.54L 115.53234375000002-48.54L 115.53234375000002-56.25L 127.10234375000003-56.25L 127.10234375000003-71.63L 136.47234375000002-71.63L 136.47234375000002-56.25L 171.78234375000002-56.25L 171.78234375000002-48.54L 136.47234375000002-48.54L 136.47234375000002-20.31Q 136.47234375000002-15.63  137.18234375000003-13.09Q 137.89234375000004-10.55  139.45234375000004-9.38Q 141.01234375-8.2  143.58234375000004-8.01Q 146.14234375000004-7.81  149.85234375000005-7.81L 149.85234375000005-7.81Q 152.78234375000002-7.81  155.10234375000005-7.91Q 157.42234375000004-8.01  159.15234375000003-8.52Q 160.89234375000004-9.03  162.11234375000004-10.08Q 163.33234375000004-11.13  164.08234375000004-13.04Q 164.84234375000003-14.94  165.18234375000003-17.85Q 165.53234375000002-20.75  165.53234375000002-25L 165.53234375000002-25ZM 188.96984375000005 0L 188.96984375000005-56.25L 198.33984375000006-56.25L 198.33984375000006 0L 188.96984375000005 0ZM 198.33984375000006-75L 198.33984375000006-65.63L 188.96984375000005-65.63L 188.96984375000005-75L 198.33984375000006-75ZM 212.40484375000003-28.52L 212.40484375000003-28.52Q 212.40484375000003-37.16  214.25484375000002-42.82Q 216.11484375000003-48.49  220.21484375000003-51.81Q 224.31484375000002-55.13  230.85484375000004-56.47Q 237.40484375000003-57.81  246.77484375000003-57.81L 246.77484375000003-57.81Q 256.15484375000005-57.81  262.69484375-56.47Q 269.23484375000004-55.13  273.34484375-51.81Q 277.44484375-48.49  279.29484375000004-42.82Q 281.15484375000005-37.16  281.15484375000005-28.52L 281.15484375000005-28.52Q 281.15484375000005-19.87  279.29484375000004-14.16Q 277.44484375-8.45  273.34484375-5.08Q 269.23484375000004-1.71  262.69484375-0.32Q 256.15484375000005 1.07  246.77484375000003 1.07L 246.77484375000003 1.07Q 237.40484375000003 1.07  230.85484375000004-0.32Q 224.31484375000002-1.71  220.21484375000003-5.08Q 216.11484375000003-8.45  214.25484375000002-14.16Q 212.40484375000003-19.87  212.40484375000003-28.52ZM 221.77484375000003-28.52L 221.77484375000003-28.52Q 221.77484375000003-23.83  222.11484375000003-20.36Q 222.46484375000003-16.89  223.41484375000002-14.4Q 224.36484375000003-11.91  226.07484375-10.35Q 227.78484375000002-8.79  230.56484375000002-7.86Q 233.34484375000002-6.93  237.32484375-6.59Q 241.30484375000003-6.25  246.77484375000003-6.25L 246.77484375000003-6.25Q 251.46484375000003-6.25  255.15484375000003-6.47Q 258.83484375-6.69  261.59484375000005-7.47Q 264.35484375000004-8.25  266.30484375000003-9.69Q 268.26484375-11.13  269.45484375-13.62Q 270.65484375000005-16.11  271.21484375-19.75Q 271.77484375000006-23.39  271.77484375000006-28.52L 271.77484375000006-28.52Q 271.77484375000006-33.54  271.21484375-37.08Q 270.65484375000005-40.63  269.45484375-43.02Q 268.26484375-45.41  266.30484375000003-46.8Q 264.35484375000004-48.19  261.59484375000005-48.9Q 258.83484375-49.61  255.15484375000003-49.8Q 251.46484375000003-50  246.77484375000003-50L 246.77484375000003-50Q 242.09484375000002-50  238.40484375000003-49.8Q 234.71484375000003-49.61  231.95484375000004-48.9Q 229.19484375000002-48.19  227.24484375000003-46.8Q 225.29484375000004-45.41  224.09484375000002-43.02Q 222.90484375000003-40.63  222.33484375000003-37.08Q 221.77484375000003-33.54  221.77484375000003-28.52ZM 357.71984375 0L 348.33984375 0L 348.33984375-31.25Q 348.33984375-36.47  347.55984375-40.06Q 346.77984375-43.65  344.42984375000003-45.85Q 342.08984375-48.05  337.78984375-49.02Q 333.49984374999997-50  326.46984375-50L 326.46984375-50Q 318.84984375-50  313.98984375-48.88Q 309.12984375-47.75  306.34984375-45.7Q 303.55984375-43.65  302.50984375-40.77Q 301.46984375-37.89  301.46984375-34.38L 301.46984375-34.38L 301.46984375 0L 292.08984375 0L 292.08984375-56.25L 301.46984375-56.25L 301.46984375-46.88Q 302.48984375-49.27  304.38984375-51Q 306.29984375-52.73  308.68984375-53.96Q 311.07984375-55.18  313.86984375-55.93Q 316.64984375-56.69  319.42984375000003-57.1Q 322.21984375-57.52  324.82984375-57.67Q 327.43984375-57.81  329.58984375-57.81L 329.58984375-57.81Q 335.83984375-57.81  340.35984375-57.03Q 344.86984375-56.25  348.01984375-54.74Q 351.16984375-53.22  353.07984375-50.98Q 354.97984375-48.73  356.02984375-45.78Q 357.07984375-42.82  357.41984375-39.18Q 357.75984375-35.55  357.75984375-31.25L 357.75984375-31.25L 357.71984375 0Z" data-textpath="Foundation" data-text-anchor="middle" data-font-size="100" data-letterspacing="0" data-side="left" data-offset="0" data-dx="0" data-dy="106.640625" data-href="" data-font="Michroma" data-font-src="/Content/clientfonts/michroma.woff" data-font-scale="contain" transform="translate(0,106.640625)" data-xmlspace="preserve" fill="url('#linearGradientSkeiui53l5d')"></path><rect x="0" y="0" width="0" height="0"></rect></g></svg>