<svg width="623" height="169.81192" xmlns="http://www.w3.org/2000/svg">
 <defs>
  <linearGradient id="linearGradientSkeiui53l4s" y2="0.5" x2="1" y1="0.5" x1="0">
   <stop stop-color="#e78200" offset="47.87%"/>
   <stop stop-color="#e78200" offset="100%"/>
  </linearGradient>
  <linearGradient id="linearGradientSkeiui53l4v" y2="0.5" x2="1" y1="0.5" x1="0">
   <stop stop-color="#7e7e7e" offset="0%"/>
   <stop stop-color="#7e7e7e" offset="100%"/>
  </linearGradient>
  <linearGradient id="linearGradientSkeiui53l4y" y2="0.5" x2="1" y1="0.5" x1="0">
   <stop stop-color="#7e7e7e" offset="0%"/>
   <stop stop-color="#7e7e7e" offset="100%"/>
  </linearGradient>
  <linearGradient id="linearGradientSkeiui53l51" y2="0.5" x2="1" y1="0.5" x1="0">
   <stop stop-color="#7e7e7e" offset="0%"/>
   <stop stop-color="#7e7e7e" offset="100%"/>
  </linearGradient>
  <linearGradient id="linearGradientSkeiui53l54" y2="0.5" x2="1" y1="0.5" x1="0">
   <stop stop-color="#7e7e7e" offset="0%"/>
   <stop stop-color="#7e7e7e" offset="100%"/>
  </linearGradient>
  <linearGradient id="linearGradientSkeiui53l57" y2="0.5" x2="1" y1="0.5" x1="0">
   <stop stop-color="#7e7e7e" offset="0%"/>
   <stop stop-color="#7e7e7e" offset="100%"/>
  </linearGradient>
  <linearGradient id="linearGradientSkeiui53l5a" y2="0.5" x2="1" y1="0.5" x1="0">
   <stop stop-color="#7e7e7e" offset="0%"/>
   <stop stop-color="#7e7e7e" offset="100%"/>
  </linearGradient>
  <linearGradient id="linearGradientSkeiui53l5d" y2="0.5" x2="1" y1="0.5" x1="0">
   <stop stop-color="#e78200" offset="0%"/>
   <stop stop-color="#e78200" offset="100%"/>
  </linearGradient>
 </defs>
 <g>
  <title>background</title>
  <rect fill="none" id="canvas_background" height="171.81192" width="625" y="-1" x="-1"/>
 </g>
 <g>
  <title>Layer 1</title>
  <g id="svg_14" class="svg-clip svg-visible" transform="matrix(2.9777,-0.052,0.052,2.9777,272.7629,209.5945) ">
   <rect id="svg_15" class="svg-hitbox" fill="none" height="16" width="16" y="-67.06306" x="-71.03225"/>
   <g id="svg_1">
    <svg y="-67.06306" x="-71.03225" id="svg_16" viewBox="16.799239339794724,-1.3010000000000002,16.391521320410554,16.381999999999998" height="16.382" width="16.39152">
     <desc>Created with Snap</desc>

     <g id="svg_17"/>
     <g id="svg_18"/>
     <g id="svg_19">
      <circle id="svg_20" r="3.191" cy="6.89" cx="24.995" fill="none"/>
     </g>
    </svg>
   </g>
  </g>
  <g id="svg_21" class="svg-clip svg-visible" transform="matrix(2.9777,-0.052,0.052,2.9777,318.7629,284.5945) ">
   <rect id="svg_22" class="svg-hitbox" fill="none" height="16" width="16" y="-67.06306" x="-71.03225"/>
   <g id="svg_2">
    <svg y="-67.06306" x="-71.03225" id="svg_23" viewBox="31.726697807032664,24.192,16.383500077982838,16.36548071116829" height="16.36548" width="16.3835">
     <desc>Created with Snap</desc>

     <g id="svg_24"/>
     <g id="svg_25"/>
     <g id="svg_26">
      <path id="svg_27" d="m41.483,29.601c-0.474,-0.265 -1.015,-0.409 -1.557,-0.409c-1.156,0 -2.222,0.628 -2.788,1.633c-0.419,0.741 -0.522,1.602 -0.29,2.424c0.231,0.82 0.764,1.501 1.509,1.922c1.488,0.839 3.515,0.258 4.344,-1.221c0.863,-1.54 0.316,-3.489 -1.218,-4.349z" fill="none"/>
     </g>
    </svg>
   </g>
  </g>
  <g id="svg_28" class="svg-clip svg-visible" transform="matrix(2.9777,-0.052,0.052,2.9777,317.7629,234.5945) ">
   <rect id="svg_29" class="svg-hitbox" fill="none" height="16" width="16" y="-67.06306" x="-71.03225"/>
   <g id="svg_3">
    <svg y="-67.06306" x="-71.03225" id="svg_30" viewBox="31.73269780703267,7.436999999999999,16.387733030101266,16.381999999999998" height="16.382" width="16.38773">
     <desc>Created with Snap</desc>

     <g id="svg_31"/>
     <g id="svg_32"/>
     <g id="svg_33">
      <path id="svg_34" d="m39.921,12.437c-0.541,0 -1.08,0.14 -1.557,0.409c-0.744,0.414 -1.279,1.097 -1.51,1.915c-0.232,0.82 -0.129,1.685 0.29,2.426c0.565,1.005 1.632,1.632 2.787,1.632c0.541,0 1.081,-0.144 1.559,-0.411c0.745,-0.416 1.277,-1.097 1.509,-1.919c0.232,-0.821 0.129,-1.681 -0.287,-2.425c-0.569,-1.001 -1.635,-1.627 -2.791,-1.627z" fill="none"/>
     </g>
    </svg>
   </g>
  </g>
  <g id="svg_35" class="svg-clip svg-visible" transform="matrix(2.9777,-0.052,0.052,2.9777,274.7629,311.5945) ">
   <rect id="svg_36" class="svg-hitbox" fill="none" height="16" width="16" y="-67.06306" x="-71.03225"/>
   <g id="svg_4">
    <svg y="-67.06306" x="-71.03225" id="svg_37" viewBox="16.80024086355298,32.928000000000004,16.389518272894044,16.380000000000003" height="16.38" width="16.38952">
     <desc>Created with Snap</desc>

     <g id="svg_38"/>
     <g id="svg_39"/>
     <g id="svg_40">
      <circle id="svg_41" r="3.19" cy="41.118" cx="24.995" fill="none"/>
     </g>
    </svg>
   </g>
  </g>
  <g id="svg_42" class="svg-clip svg-visible" transform="matrix(2.9777,-0.052,0.052,2.9777,228.7629,236.5945) ">
   <rect id="svg_43" class="svg-hitbox" fill="none" height="16" width="16" y="-67.06306" x="-71.03225"/>
   <g id="svg_5">
    <svg y="-67.06306" x="-71.03225" id="svg_44" viewBox="1.8839566756362434,7.431999999999999,16.37924407510215,16.382" height="16.382" width="16.37924">
     <desc>Created with Snap</desc>

     <g id="svg_45"/>
     <g id="svg_46"/>
     <g id="svg_47">
      <path id="svg_48" d="m8.514,18.408c0.474,0.266 1.013,0.406 1.556,0.406l0,0c1.153,0 2.22,-0.624 2.785,-1.628c0.862,-1.534 0.314,-3.485 -1.222,-4.344c-0.477,-0.269 -1.015,-0.41 -1.556,-0.41c-1.152,0 -2.223,0.625 -2.788,1.629c-0.857,1.531 -0.31,3.481 1.225,4.347z" fill="none"/>
     </g>
    </svg>
   </g>
  </g>
  <g id="svg_49" class="svg-clip svg-visible" transform="matrix(2.9777,-0.052,0.052,2.9777,229.7629,285.5945) ">
   <rect id="svg_50" class="svg-hitbox" fill="none" height="16" width="16" y="-67.06306" x="-71.03225"/>
   <g id="svg_6">
    <svg y="-67.06306" x="-71.03225" id="svg_51" viewBox="1.8809361674064435,24.189,16.386512940721065,16.381" height="16.381" width="16.38651">
     <desc>Created with Snap</desc>

     <g id="svg_52"/>
     <g id="svg_53"/>
     <g id="svg_54">
      <path id="svg_55" d="m10.065,29.189c-0.541,0 -1.079,0.144 -1.554,0.409c-0.743,0.414 -1.279,1.096 -1.509,1.918c-0.232,0.824 -0.128,1.684 0.29,2.428c0.562,1.005 1.633,1.626 2.792,1.626c0.541,0 1.079,-0.138 1.555,-0.405c1.534,-0.861 2.081,-2.809 1.222,-4.345c-0.569,-1.004 -1.638,-1.631 -2.796,-1.631z" fill="none"/>
     </g>
    </svg>
   </g>
  </g>
  <g id="svg_56" class="svg-clip svg-visible" transform="matrix(0.9066,0.482,-0.482,0.9066,288.3795,246.3247) ">
   <rect id="svg_57" class="svg-hitbox" fill="none" height="56" width="51" y="-70.25257" x="-274.50003"/>
   <g id="svg_7">
    <svg y="-70.25257" x="-274.50003" id="svg_58" viewBox="-0.9109068233559796,-4.09,51.81995029640821,56.191" height="56.191" width="51.81995">
     <desc>Created with Snap</desc>

     <g id="svg_59"/>
     <g id="svg_60"/>
     <g id="svg_61">
      <path id="svg_62" d="m4.858,12.695c1.562,-2.771 5.361,-3.852 8.144,-2.287c2.875,1.617 3.899,5.27 2.286,8.145c-1.057,1.884 -3.059,3.054 -5.217,3.054l0,0c-1.019,0 -2.031,-0.264 -2.924,-0.764c-2.878,-1.621 -3.905,-5.277 -2.289,-8.148zm8.146,24.907c-0.895,0.497 -1.903,0.76 -2.921,0.76c-2.164,0 -4.165,-1.17 -5.226,-3.053c-0.782,-1.395 -0.975,-3.008 -0.541,-4.547c0.431,-1.538 1.436,-2.815 2.828,-3.598c2.791,-1.562 6.591,-0.48 8.145,2.291c1.615,2.874 0.588,6.53 -2.285,8.147zm11.991,9.499c-3.297,0 -5.981,-2.682 -5.981,-5.98c0,-3.298 2.685,-5.982 5.981,-5.982c3.3,0 5.983,2.685 5.983,5.982c0.001,3.298 -2.683,5.98 -5.983,5.98zm0,-34.229c-3.297,0 -5.981,-2.683 -5.981,-5.981c0,-3.3 2.685,-5.981 5.981,-5.981c3.3,0 5.983,2.681 5.983,5.981c0.001,3.298 -2.683,5.981 -5.983,5.981zm20.139,22.439c-1.058,1.885 -3.058,3.054 -5.221,3.054c-1.023,0 -2.032,-0.266 -2.928,-0.767c-1.392,-0.782 -2.396,-2.062 -2.826,-3.6c-0.434,-1.539 -0.235,-3.152 0.544,-4.544c1.556,-2.771 5.354,-3.856 8.144,-2.29c2.882,1.621 3.905,5.274 2.287,8.147zm0.552,-18.06c-0.433,1.537 -1.441,2.812 -2.834,3.594c-0.89,0.502 -1.904,0.767 -2.923,0.767c-2.159,0 -4.162,-1.17 -5.223,-3.056c-0.779,-1.392 -0.975,-3.007 -0.541,-4.543c0.433,-1.537 1.441,-2.816 2.833,-3.598c2.793,-1.559 6.591,-0.48 8.146,2.289c0.78,1.394 0.969,3.01 0.542,4.547z" fill="url('#linearGradientSkeiui53l4s')"/>
     </g>
    </svg>
   </g>
  </g>
  <g id="svg_63" class="svg-clip svg-visible" transform="matrix(2.9777,-0.052,0.052,2.9777,265.1888,202.2802) ">
   <rect id="svg_64" class="svg-hitbox" fill="none" height="21" width="21" y="-67.06306" x="-71.03225"/>
   <g id="svg_8">
    <svg y="-67.06306" x="-71.03225" id="svg_65" viewBox="14.014000000000003,-4.091,21.964000279342976,21.961999999999996" height="21.962" width="21.964">
     <desc>Created with Snap</desc>

     <g id="svg_66"/>
     <g id="svg_67"/>
     <g id="svg_68">
      <path id="svg_69" d="m24.995,0.909c-3.297,0 -5.981,2.681 -5.981,5.981c0,3.299 2.685,5.981 5.981,5.981c3.3,0 5.983,-2.683 5.983,-5.981c0.001,-3.3 -2.683,-5.981 -5.983,-5.981zm0,9.172c-1.757,0 -3.19,-1.43 -3.19,-3.19c0,-1.758 1.434,-3.191 3.19,-3.191c1.759,0 3.191,1.433 3.191,3.191c0.001,1.76 -1.431,3.19 -3.191,3.19z" fill="url('#linearGradientSkeiui53l4v')"/>
     </g>
    </svg>
   </g>
  </g>
  <g id="svg_70" class="svg-clip svg-visible" transform="matrix(2.9777,-0.052,0.052,2.9777,267.1888,304.2802) ">
   <rect id="svg_71" class="svg-hitbox" fill="none" height="21" width="21" y="-67.06306" x="-71.03225"/>
   <g id="svg_9">
    <svg y="-67.06306" x="-71.03225" id="svg_72" viewBox="14.014000000000003,30.137999999999998,21.964000279342976,21.961999999999996" height="21.962" width="21.964">
     <desc>Created with Snap</desc>

     <g id="svg_73"/>
     <g id="svg_74"/>
     <g id="svg_75">
      <path id="svg_76" d="m24.995,35.138c-3.297,0 -5.981,2.685 -5.981,5.982c0,3.299 2.685,5.98 5.981,5.98c3.3,0 5.983,-2.682 5.983,-5.98c0.001,-3.298 -2.683,-5.982 -5.983,-5.982zm0,9.17c-1.757,0 -3.19,-1.43 -3.19,-3.188c0,-1.76 1.434,-3.192 3.19,-3.192c1.759,0 3.191,1.433 3.191,3.192c0.001,1.758 -1.431,3.188 -3.191,3.188z" fill="url('#linearGradientSkeiui53l4y')"/>
     </g>
    </svg>
   </g>
  </g>
  <g id="svg_77" class="svg-clip svg-visible" transform="matrix(2.9777,-0.052,0.052,2.9777,221.1888,229.2802) ">
   <rect id="svg_78" class="svg-hitbox" fill="none" height="21" width="21" y="-67.06306" x="-71.03225"/>
   <g id="svg_10">
    <svg y="-67.06306" x="-71.03225" id="svg_79" viewBox="-0.9074255641533826,4.6842704258765675,21.960571578243655,21.918729574123432" height="21.91873" width="21.96057">
     <desc>Created with Snap</desc>

     <g id="svg_80"/>
     <g id="svg_81"/>
     <g id="svg_82">
      <path id="svg_83" d="m7.146,20.84c0.894,0.503 1.905,0.763 2.924,0.763l0,0c2.159,0 4.16,-1.167 5.217,-3.051c1.617,-2.877 0.59,-6.53 -2.286,-8.145c-2.782,-1.567 -6.584,-0.487 -8.143,2.285c-1.616,2.874 -0.589,6.53 2.288,8.148zm0.146,-6.779c0.567,-1.004 1.633,-1.629 2.789,-1.629c0.541,0 1.079,0.141 1.555,0.41c1.534,0.863 2.081,2.81 1.221,4.344c-0.564,1.005 -1.63,1.628 -2.785,1.628l0,0c-0.541,0 -1.08,-0.141 -1.554,-0.406c-1.539,-0.866 -2.086,-2.816 -1.226,-4.347z" fill="url('#linearGradientSkeiui53l51')"/>
     </g>
    </svg>
   </g>
  </g>
  <g id="svg_84" class="svg-clip svg-visible" transform="matrix(2.9777,-0.052,0.052,2.9777,311.1888,277.2802) ">
   <rect id="svg_85" class="svg-hitbox" fill="none" height="21" width="21" y="-67.06306" x="-71.03225"/>
   <g id="svg_11">
    <svg y="-67.06306" x="-71.03225" id="svg_86" viewBox="28.936646826552376,21.445095229510123,21.966623704264364,21.92290477048988" height="21.9229" width="21.96662">
     <desc>Created with Snap</desc>

     <g id="svg_87"/>
     <g id="svg_88"/>
     <g id="svg_89">
      <path id="svg_90" d="m42.85,27.167c-2.793,-1.569 -6.591,-0.479 -8.144,2.288c-0.779,1.396 -0.978,3.004 -0.544,4.544c0.431,1.542 1.438,2.819 2.827,3.603c0.895,0.502 1.903,0.766 2.927,0.766c2.162,0 4.162,-1.17 5.223,-3.053c1.613,-2.877 0.59,-6.53 -2.289,-8.148zm-0.149,6.779c-0.829,1.48 -2.855,2.061 -4.344,1.221c-0.742,-0.418 -1.277,-1.102 -1.509,-1.921c-0.232,-0.82 -0.129,-1.684 0.29,-2.426c0.563,-1.004 1.629,-1.631 2.788,-1.631c0.539,0 1.08,0.144 1.557,0.409c1.534,0.863 2.081,2.812 1.218,4.348z" fill="url('#linearGradientSkeiui53l54')"/>
     </g>
    </svg>
   </g>
  </g>
  <g id="svg_91" class="svg-clip svg-visible" transform="matrix(2.9777,-0.052,0.052,2.9777,310.1888,227.2802) ">
   <rect id="svg_92" class="svg-hitbox" fill="none" height="21" width="21" y="-67.06306" x="-71.03225"/>
   <g id="svg_12">
    <svg y="-67.06306" x="-71.03225" id="svg_93" viewBox="28.938807987908895,4.693178812792581,21.972052872128153,21.91582118720742" height="21.91582" width="21.97205">
     <desc>Created with Snap</desc>

     <g id="svg_94"/>
     <g id="svg_95"/>
     <g id="svg_96">
      <path id="svg_97" d="m36.998,10.413c-1.392,0.781 -2.397,2.06 -2.833,3.596c-0.434,1.539 -0.238,3.15 0.541,4.544c1.058,1.887 3.061,3.056 5.223,3.056c1.019,0 2.033,-0.264 2.923,-0.766c1.393,-0.78 2.396,-2.058 2.834,-3.596c0.431,-1.539 0.238,-3.154 -0.541,-4.545c-1.556,-2.771 -5.357,-3.852 -8.147,-2.289zm5.998,6.08c-0.23,0.817 -0.764,1.5 -1.51,1.917c-0.477,0.269 -1.018,0.41 -1.558,0.41c-1.155,0 -2.222,-0.624 -2.787,-1.629c-0.416,-0.743 -0.52,-1.606 -0.29,-2.428c0.23,-0.817 0.767,-1.499 1.509,-1.916c0.474,-0.267 1.014,-0.409 1.559,-0.409c1.155,0 2.224,0.628 2.787,1.627c0.419,0.746 0.523,1.606 0.29,2.428z" fill="url('#linearGradientSkeiui53l57')"/>
     </g>
    </svg>
   </g>
  </g>
  <g id="svg_98" class="svg-clip svg-visible" transform="matrix(2.9777,-0.052,0.052,2.9777,222.1888,278.2802) ">
   <rect id="svg_99" class="svg-hitbox" fill="none" height="21" width="21" y="-67.06306" x="-71.03225"/>
   <g id="svg_13">
    <svg y="-67.06306" x="-71.03225" id="svg_100" viewBox="-0.9091456343559203,21.445118336238064,21.965305483615047,21.91688166376193" height="21.91688" width="21.96531">
     <desc>Created with Snap</desc>

     <g id="svg_101"/>
     <g id="svg_102"/>
     <g id="svg_103">
      <path id="svg_104" d="m7.146,27.164c-1.392,0.782 -2.397,2.06 -2.828,3.598c-0.434,1.539 -0.242,3.153 0.541,4.547c1.058,1.883 3.058,3.053 5.226,3.053c1.018,0 2.026,-0.263 2.921,-0.76c2.875,-1.616 3.899,-5.272 2.286,-8.146c-1.556,-2.772 -5.355,-3.854 -8.146,-2.292zm4.49,8.001c-0.477,0.268 -1.015,0.405 -1.555,0.405c-1.155,0 -2.226,-0.625 -2.792,-1.626c-0.416,-0.744 -0.52,-1.605 -0.291,-2.428c0.229,-0.82 0.764,-1.504 1.511,-1.918c0.474,-0.267 1.011,-0.409 1.552,-0.409c1.158,0 2.226,0.627 2.793,1.631c0.863,1.536 0.315,3.484 -1.218,4.345z" fill="url('#linearGradientSkeiui53l5a')"/>
     </g>
    </svg>
   </g>
  </g>
  <g id="svg_105" class="svg-text svg-visible" transform="matrix(0.6648,0,0,0.6533,587,196) ">
   <path id="svg_106" d="m-703.96555,-187.01196c344.01367,-1 384.01367,-1 728.02734,0" fill="red"/>
   <path id="svg_107" fill="url('#linearGradientSkeiui53l5d')" d="m-685.21555,-202.55884l-9.37,0l0,-75l71.87,0l0,7.81l-62.5,0l0,25l59.38,0l0,7.81l-59.38,0l0,34.38zm70.315,-28.52l0,0q0,-8.64 1.85,-14.3q1.86,-5.67 5.96,-8.99q4.1,-3.32 10.64,-4.66q6.55,-1.34 15.92,-1.34l0,0q9.38,0 15.92,1.34q6.54,1.34 10.65,4.66q4.1,3.32 5.95,8.99q1.86,5.66 1.86,14.3l0,0q0,8.65 -1.86,14.36q-1.85,5.71 -5.95,9.08q-4.11,3.37 -10.65,4.76q-6.54,1.39 -15.92,1.39l0,0q-9.37,0 -15.92,-1.39q-6.54,-1.39 -10.64,-4.76q-4.1,-3.37 -5.96,-9.08q-1.85,-5.71 -1.85,-14.36zm9.37,0l0,0q0,4.69 0.34,8.16q0.35,3.47 1.3,5.96q0.95,2.49 2.66,4.05q1.71,1.56 4.49,2.49q2.78,0.93 6.76,1.27q3.98,0.34 9.45,0.34l0,0q4.69,0 8.38,-0.22q3.68,-0.22 6.44,-1q2.76,-0.78 4.71,-2.22q1.96,-1.44 3.15,-3.93q1.2,-2.49 1.76,-6.13q0.56,-3.64 0.56,-8.77l0,0q0,-5.02 -0.56,-8.56q-0.56,-3.55 -1.76,-5.94q-1.19,-2.39 -3.15,-3.78q-1.95,-1.39 -4.71,-2.1q-2.76,-0.71 -6.44,-0.9q-3.69,-0.2 -8.38,-0.2l0,0q-4.68,0 -8.37,0.2q-3.69,0.19 -6.45,0.9q-2.76,0.71 -4.71,2.1q-1.95,1.39 -3.15,3.78q-1.19,2.39 -1.76,5.94q-0.56,3.54 -0.56,8.56zm70.365,-27.73l9.37,0l0,31.25q0,5.22 0.79,8.81q0.78,3.59 3.12,5.79q2.34,2.2 6.64,3.17q4.3,0.98 11.33,0.98l0,0q7.62,0 12.47,-1.12q4.86,-1.13 7.65,-3.18q2.78,-2.05 3.83,-4.93q1.05,-2.88 1.05,-6.4l0,0l0,-34.37l9.37,0l0,56.25l-9.37,0l0,-9.38q-0.68,1.52 -2.3,3.35q-1.61,1.83 -4.83,3.39q-3.22,1.57 -8.33,2.64q-5.1,1.07 -12.67,1.07l0,0q-6.29,0 -10.81,-0.75q-4.52,-0.76 -7.67,-2.25q-3.15,-1.49 -5.05,-3.69q-1.91,-2.19 -2.93,-5.1q-1.03,-2.9 -1.37,-6.47q-0.34,-3.56 -0.34,-7.81l0,0l0.05,-31.25zm143.75383,56.25l-9.38,0l0,-31.25q0,-5.22 -0.78,-8.81q-0.78,-3.59 -3.13,-5.79q-2.34,-2.2 -6.64,-3.17q-4.29,-0.98 -11.32,-0.98l0,0q-7.62,0 -12.48,1.12q-4.86,1.13 -7.64,3.18q-2.79,2.05 -3.84,4.93q-1.04,2.88 -1.04,6.39l0,0l0,34.38l-9.38,0l0,-56.25l9.38,0l0,9.37q1.02,-2.39 2.92,-4.12q1.91,-1.73 4.3,-2.96q2.39,-1.22 5.18,-1.97q2.78,-0.76 5.56,-1.17q2.79,-0.42 5.4,-0.57q2.61,-0.14 4.76,-0.14l0,0q6.25,0 10.77,0.78q4.51,0.78 7.66,2.29q3.15,1.52 5.06,3.76q1.9,2.25 2.95,5.2q1.05,2.96 1.39,6.6q0.34,3.63 0.34,7.93l0,0l-0.04,31.25zm45.35382,1.07l0,0q-9.37,0 -15.92,-1.36q-6.54,-1.37 -10.64,-4.69q-4.1,-3.32 -5.96,-8.94q-1.85,-5.61 -1.85,-14.11l0,0q0,-8.79 1.85,-14.55q1.86,-5.76 5.96,-9.13q4.1,-3.37 10.64,-4.74q6.55,-1.36 15.92,-1.36l0,0q6.64,0 11.14,0.68q4.49,0.68 7.34,1.71q2.86,1.03 4.35,2.22q1.49,1.2 2.17,2.22l0,0l0,-24.02l9.38,0l0,75l-9.38,0l0,-8.35q0,0 -2.34,2.78l0,0q-2.05,2.01 -4.54,3.23q-2.49,1.22 -6.98,2.32q-4.5,1.09 -11.14,1.09zm0,-7.32l0,0q4.69,0 8.35,-0.22q3.66,-0.22 6.45,-0.95q2.78,-0.73 4.71,-2.17q1.93,-1.45 3.15,-3.84q1.22,-2.39 1.78,-5.93q0.56,-3.54 0.56,-8.52l0,0q0,-5.18 -0.56,-8.81q-0.56,-3.64 -1.78,-6.11q-1.22,-2.46 -3.15,-3.88q-1.93,-1.42 -4.71,-2.17q-2.79,-0.76 -6.45,-0.95q-3.66,-0.2 -8.35,-0.2l0,0q-5.47,0 -9.45,0.34q-3.98,0.34 -6.76,1.22q-2.78,0.88 -4.52,2.44q-1.73,1.57 -2.68,4.01q-0.95,2.44 -1.27,5.88q-0.32,3.44 -0.32,8.08l0,0q0,4.59 0.32,7.99q0.32,3.39 1.27,5.81q0.95,2.41 2.68,3.98q1.74,1.56 4.52,2.44q2.78,0.88 6.76,1.22q3.98,0.34 9.45,0.34zm102.8875,6.25l0,-7.71q-0.15,0.58 -2.2,2.92l0,0q-1.47,1.76 -3.91,3.11q-2.44,1.34 -6.52,2.1q-4.07,0.75 -10.71,0.75l0,0q-8.84,0 -15.09,-0.9q-6.25,-0.9 -10.21,-2.78q-3.95,-1.88 -5.78,-4.81q-1.83,-2.93 -1.83,-6.99l0,0q0,-4.24 1,-7.2q1,-2.95 2.93,-4.95q1.93,-2.01 4.66,-3.13q2.73,-1.12 6.23,-1.71q3.49,-0.58 7.64,-0.73q4.15,-0.15 8.83,-0.15l0,0q6.69,0 11.19,0.56q4.49,0.57 7.34,1.42q2.86,0.85 4.33,1.83q1.46,0.98 2.1,1.81l0,0q0,-5.47 -0.47,-9.33q-0.46,-3.86 -1.51,-6.44q-1.05,-2.59 -2.71,-4.13q-1.66,-1.54 -4.08,-2.32q-2.42,-0.78 -5.64,-1q-3.22,-0.22 -7.37,-0.22l0,0q-6.45,0 -10.69,0.32q-4.25,0.31 -6.74,1.24q-2.49,0.93 -3.52,2.57q-1.02,1.63 -1.02,4.27l0,0l-9.38,0q0,-4.44 1.59,-7.52q1.58,-3.08 5.27,-5.01q3.69,-1.92 9.69,-2.8q6.01,-0.88 14.8,-0.88l0,0q8.59,0 14.55,1.41q5.96,1.42 9.64,4.98q3.69,3.57 5.33,9.6q1.63,6.03 1.63,15.26l0,0l0,26.56l-9.37,0zm-21.78,-6.25l0,0q6.2,0 10.37,-0.59q4.18,-0.58 6.72,-1.75q2.54,-1.18 3.61,-2.93q1.08,-1.76 1.08,-4.11l0,0q0,-2.34 -1.25,-3.97q-1.24,-1.64 -4.15,-2.67q-2.9,-1.02 -7.69,-1.48q-4.79,-0.47 -11.82,-0.47l0,0q-7.03,0 -11.35,0.25q-4.32,0.24 -6.66,1.12q-2.35,0.88 -3.15,2.59q-0.81,1.71 -0.81,4.63l0,0q0,2.93 0.86,4.77q0.85,1.83 3.49,2.85q2.63,1.03 7.59,1.39q4.96,0.37 13.16,0.37zm90.53086,-18.75l7.81,0q0,7.18 -1.17,11.99q-1.18,4.81 -3.94,7.69q-2.75,2.88 -7.25,4.1q-4.49,1.22 -11.08,1.22l0,0q-6.4,0 -10.74,-0.98q-4.35,-0.97 -7.03,-3.32q-2.69,-2.34 -3.86,-6.25q-1.17,-3.9 -1.17,-9.76l0,0l0,-28.23l-11.57,0l0,-7.71l11.57,0l0,-15.38l9.37,0l0,15.38l35.31,0l0,7.71l-35.31,0l0,28.23q0,4.68 0.71,7.22q0.71,2.54 2.27,3.71q1.56,1.18 4.13,1.37q2.56,0.2 6.27,0.2l0,0q2.93,0 5.25,-0.1q2.32,-0.1 4.05,-0.61q1.74,-0.51 2.96,-1.56q1.22,-1.05 1.97,-2.96q0.76,-1.9 1.1,-4.81q0.35,-2.9 0.35,-7.15l0,0zm23.4375,25l0,-56.25l9.37,0l0,56.25l-9.37,0zm9.37,-75l0,9.37l-9.37,0l0,-9.37l9.37,0zm14.065,46.48l0,0q0,-8.64 1.85,-14.3q1.86,-5.67 5.96,-8.99q4.1,-3.32 10.64,-4.66q6.55,-1.34 15.92,-1.34l0,0q9.38,0 15.92,1.34q6.54,1.34 10.65,4.66q4.1,3.32 5.95,8.99q1.86,5.66 1.86,14.3l0,0q0,8.65 -1.86,14.36q-1.85,5.71 -5.95,9.08q-4.11,3.37 -10.65,4.76q-6.54,1.39 -15.92,1.39l0,0q-9.37,0 -15.92,-1.39q-6.54,-1.39 -10.64,-4.76q-4.1,-3.37 -5.96,-9.08q-1.85,-5.71 -1.85,-14.36zm9.37,0l0,0q0,4.69 0.34,8.16q0.35,3.47 1.3,5.96q0.95,2.49 2.66,4.05q1.71,1.56 4.49,2.49q2.78,0.93 6.76,1.27q3.98,0.34 9.45,0.34l0,0q4.69,0 8.38,-0.22q3.68,-0.22 6.44,-1q2.76,-0.78 4.71,-2.22q1.96,-1.44 3.15,-3.93q1.2,-2.49 1.76,-6.13q0.56,-3.64 0.56,-8.77l0,0q0,-5.02 -0.56,-8.56q-0.56,-3.55 -1.76,-5.94q-1.19,-2.39 -3.15,-3.78q-1.95,-1.39 -4.71,-2.1q-2.76,-0.71 -6.44,-0.9q-3.69,-0.2 -8.38,-0.2l0,0q-4.68,0 -8.37,0.2q-3.69,0.19 -6.45,0.9q-2.76,0.71 -4.71,2.1q-1.95,1.39 -3.15,3.78q-1.19,2.39 -1.76,5.94q-0.56,3.54 -0.56,8.56zm135.945,28.52l-9.38,0l0,-31.25q0,-5.22 -0.78,-8.81q-0.78,-3.59 -3.13,-5.79q-2.34,-2.2 -6.64,-3.17q-4.29,-0.98 -11.32,-0.98l0,0q-7.62,0 -12.48,1.12q-4.86,1.13 -7.64,3.18q-2.79,2.05 -3.84,4.93q-1.04,2.88 -1.04,6.39l0,0l0,34.38l-9.38,0l0,-56.25l9.38,0l0,9.37q1.02,-2.39 2.92,-4.12q1.91,-1.73 4.3,-2.96q2.39,-1.22 5.18,-1.97q2.78,-0.76 5.56,-1.17q2.79,-0.42 5.4,-0.57q2.61,-0.14 4.76,-0.14l0,0q6.25,0 10.77,0.78q4.51,0.78 7.66,2.29q3.15,1.52 5.06,3.76q1.9,2.25 2.95,5.2q1.05,2.96 1.39,6.6q0.34,3.63 0.34,7.93l0,0l-0.04,31.25z"/>
   <rect id="svg_108" height="0" width="0" y="-309.19946" x="-339.95188"/>
  </g>
 </g>
</svg>